:FULLY-SPECIFIED
:FORCE-ALL-JOINTS-BE-3DOF
:DEGREES
1223
root -0.842055 14.8461 -16.6087 10.2256 17.6322 1.03738
lfemur 1.75366 -3.08248 -8.52729
ltibia 63.6405 -0 0
lfoot 3.72673 -0.114 -1.11203
ltoes -32.7163 0 0
rfemur -56.4714 -9.56706 23.2722
rtibia 75.6203 -0 0
rfoot -21.3507 -20.6012 0.258183
rtoes -3.93466 0 0
lowerback 13.0216 1.34632 -2.80533
upperback -3.38413 1.32713 -0.135918
thorax -11.1032 0.80287 1.1131
lowerneck -0.989313 -8.70178 -9.88645
upperneck 0.126992 -11.6264 10.445
head 1.40629 -5.7833 4.37612
lclavicle -2.73065e-14 -1.84249e-14 0
lhumerus -61.4211 -31.2239 119.988
lradius 85.8354 -0 0
lwrist 8.53316 0 0
lhand -28.3332 26.039 0.345146
lfingers 7.12502 -0 0
lthumb -1.70805 55.9365 0.327516
rclavicle -2.73065e-14 -1.84249e-14 0
rhumerus 67.9983 0.883613 -25.3607
rradius 94.1306 -0 0
rwrist -11.6039 0 0
rhand -30.5633 -34.601 -0.128148
rfingers 7.12502 -0 0
rthumb -3.85835 -64.6106 -0.140832
1224
root -0.856038 14.8573 -16.487 10.372 17.1047 0.820475
lfemur 1.16553 -3.08895 -8.56414
ltibia 64.2926 -0 0
lfoot 4.33119 -0.848016 -0.961238
ltoes -32.4937 0 0
rfemur -56.0775 -9.20042 23.6587
rtibia 75.5667 -0 0
rfoot -21.4909 -21.1867 0.22504
rtoes -3.9459 0 0
lowerback 12.8877 1.31297 -2.58589
upperback -3.44179 1.32586 -0.0971838
thorax -11.081 0.790932 1.03602
lowerneck -1.05112 -8.55884 -9.77577
upperneck 0.113648 -11.428 10.3634
head 1.37925 -5.6824 4.34753
lclavicle -2.73065e-14 -1.84249e-14 0
lhumerus -60.595 -31.8657 120.252
lradius 85.3749 -0 0
lwrist 7.1477 0 0
lhand -28.6966 25.6794 0.289359
lfingers 7.12502 -0 0
lthumb -2.05888 55.584 0.274385
rclavicle -2.73065e-14 -1.84249e-14 0
rhumerus 67.8549 1.57341 -25.3682
rradius 94.1922 -0 0
rwrist -12.3193 0 0
rhand -30.2416 -34.678 -0.115427
rfingers 7.12502 -0 0
rthumb -3.548 -64.6884 -0.127085
1225
root -0.870021 14.8684 -16.3652 10.5064 16.582 0.602139
lfemur 0.549285 -3.06394 -8.6011
ltibia 64.8864 -0 0
lfoot 4.90387 -1.52026 -0.809937
ltoes -32.2236 0 0
rfemur -55.634 -8.84788 24.0303
rtibia 75.4828 -0 0
rfoot -21.613 -21.7425 0.191483
rtoes -3.99118 0 0
lowerback 12.7526 1.28347 -2.3721
upperback -3.49814 1.32826 -0.0573029
thorax -11.057 0.781205 0.962799
lowerneck -1.11417 -8.41779 -9.66693
upperneck 0.110519 -11.233 10.2821
head 1.35633 -5.58303 4.31882
lclavicle -2.73065e-14 -1.84249e-14 0
lhumerus -59.7068 -32.5189 120.458
lradius 84.9501 -0 0
lwrist 5.89051 0 0
lhand -29.0378 25.365 0.235253
lfingers 7.12502 -0 0
lthumb -2.38837 55.2765 0.22289
rclavicle -2.73065e-14 -1.84249e-14 0
rhumerus 67.6634 2.30452 -25.397
rradius 94.2446 -0 0
rwrist -13.0297 0 0
rhand -29.9104 -34.7431 -0.101549
rfingers 7.12502 -0 0
rthumb -3.2284 -64.7529 -0.112022
1226
root -0.884004 14.8796 -16.2435 10.628 16.0648 0.382731
lfemur -0.095859 -3.00576 -8.63852
ltibia 65.4176 -0 0
lfoot 5.44309 -2.12695 -0.660086
ltoes -31.9041 0 0
rfemur -55.1391 -8.5109 24.3861
rtibia 75.3673 -0 0
rfoot -21.7164 -22.2666 0.157861
rtoes -4.07251 0 0
lowerback 12.6165 1.258 -2.16447
upperback -3.55307 1.33451 -0.016245
thorax -11.031 0.773809 0.893729
lowerneck -1.17848 -8.27888 -9.56012
upperneck 0.118079 -11.0417 10.2011
head 1.33775 -5.48538 4.29004
lclavicle -2.73065e-14 -1.84249e-14 0
lhumerus -58.752 -33.1825 120.601
lradius 84.5634 -0 0
lwrist 4.77033 0 0
lhand -29.3556 25.0995 0.183815
lfingers 7.12502 -0 0
lthumb -2.69522 55.0175 0.173974
rclavicle -2.73065e-14 -1.84249e-14 0
rhumerus 67.4206 3.07838 -25.4494
rradius 94.2873 -0 0
rwrist -13.7345 0 0
rhand -29.5693 -34.7952 -0.0865971
rfingers 7.12502 -0 0
rthumb -2.89931 -64.8032 -0.0957261
1227
root -0.897987 14.8907 -16.1218 10.7361 15.5539 0.162627
lfemur -0.770696 -2.91273 -8.67686
ltibia 65.882 -0 0
lfoot 5.94719 -2.66434 -0.513644
ltoes -31.533 0 0
rfemur -54.5912 -8.19088 24.7254
rtibia 75.2189 -0 0
rfoot -21.8003 -22.7569 0.124513
rtoes -4.19189 0 0
lowerback 12.4795 1.23674 -1.96352
upperback -3.60648 1.34477 0.02602
thorax -11.0032 0.768868 0.829091
lowerneck -1.24404 -8.14239 -9.45553
upperneck 0.136802 -10.8544 10.1205
head 1.32371 -5.38962 4.26124
lclavicle -2.73065e-14 -1.84249e-14 0
lhumerus -57.726 -33.8553 120.675
lradius 84.2171 -0 0
lwrist 3.79591 0 0
lhand -29.6485 24.8862 0.136026
lfingers 7.12502 -0 0
lthumb -2.97809 54.8104 0.128575
rclavicle -2.73065e-14 -1.84249e-14 0
rhumerus 67.1234 3.89631 -25.5276
rradius 94.3197 -0 0
rwrist -14.4328 0 0
rhand -29.2181 -34.8333 -0.0706742
rfingers 7.12502 -0 0
rthumb -2.56046 -64.8381 -0.0782977
1228
root -0.91197 14.9019 -16.0001 10.8301 15.0501 -0.0577905
lfemur -1.47602 -2.78317 -8.71665
ltibia 66.2753 -0 0
lfoot 6.41453 -3.12872 -0.372553
ltoes -31.1082 0 0
rfemur -53.9887 -7.88916 25.0471
rtibia 75.0364 -0 0
rfoot -21.864 -23.2112 0.0917632
rtoes -4.35132 0 0
lowerback 12.3418 1.21986 -1.76975
upperback -3.65828 1.35924 0.0695223
thorax -10.9733 0.766501 0.769172
lowerneck -1.31088 -8.00859 -9.35334
upperneck 0.167166 -10.6716 10.0406
head 1.31445 -5.29597 4.23244
lclavicle -2.73065e-14 -1.84249e-14 0
lhumerus -56.624 -34.5358 120.675
lradius 83.9137 -0 0
lwrist 2.97599 0 0
lhand -29.9153 24.7288 0.0928463
lfingers 7.12502 -0 0
lthumb -3.2357 54.6587 0.0876145
rclavicle -2.73065e-14 -1.84249e-14 0
rhumerus 66.7685 4.75953 -25.6342
rradius 94.3401 -0 0
rwrist -15.1237 0 0
rhand -28.8565 -34.8565 -0.0539012
rfingers 7.12502 -0 0
rthumb -2.21159 -64.8566 -0.0598581
